<?xml version="1.0" encoding="UTF-8" standalone="yes"?>
<svg version="1.2" width="512" height="512" viewBox="0 0 512 512" baseProfile="tiny-ps" xmlns="http://www.w3.org/2000/svg">
  <title>bimi-svg-tiny-12-ps</title>
  <path d="M0 0 C13.93917419 4.30847202 27.11435811 10.35043158 40.06005859 17.01904297 C41.90778603 17.95337079 43.76933496 18.84500166 45.64453125 19.72265625 C54.5085298 23.91380511 62.89400561 28.82008998 71.25 33.9375 C72.32685059 34.59363281 73.40370117 35.24976563 74.51318359 35.92578125 C84.94167566 42.38751948 94.63315327 49.74231146 104.125 57.5 C104.80095215 58.05115479 105.4769043 58.60230957 106.17333984 59.17016602 C120.18582001 70.66213918 120.18582001 70.66213918 123.515625 74.953125 C124.97946868 76.97898884 124.97946868 76.97898884 128 79 C132.15520421 79.03889427 135.98756135 78.00658866 140 77 C174.08365289 69.4648969 209.66694412 69.84626363 243.69116211 77.41088867 C244.69928955 77.6297876 245.70741699 77.84868652 246.74609375 78.07421875 C247.63997803 78.27619873 248.5338623 78.47817871 249.45483398 78.6862793 C252.27179725 79.03350211 254.28813178 78.81973237 257 78 C258.38509525 76.37609523 259.70758949 74.69859667 261 73 C263.56516269 70.54969535 266.29443856 68.29299589 269 66 C269.91652344 65.195625 270.83304687 64.39125 271.77734375 63.5625 C301.21222786 37.88252673 344.80366844 6.84154151 384 0 C386.7851179 8.17921975 389.26228313 16.28894014 390.75 24.8125 C390.86512939 25.46790771 390.98025879 26.12331543 391.09887695 26.79858398 C391.43706222 28.86220428 391.72892227 30.92650134 392 33 C392.14465698 34.09465576 392.14465698 34.09465576 392.29223633 35.21142578 C393.29300571 44.23528216 393.18607731 53.31026033 393.18530273 62.37744141 C393.18748443 65.22964519 393.20568036 68.08145828 393.22460938 70.93359375 C393.27547053 86.54669377 391.57123095 100.94700553 387.6875 116.125 C387.26307617 117.86330078 387.26307617 117.86330078 386.83007812 119.63671875 C385.05055873 126.69955624 382.83412946 133.42214641 380.11669922 140.18017578 C379.1254793 142.68314694 378.25000052 145.18459401 377.4375 147.75 C375.46958621 153.7510558 372.87299698 159.36639983 369.9296875 164.94921875 C369.56190186 165.65618896 369.19411621 166.36315918 368.81518555 167.09155273 C368.073903 168.51040509 367.32045588 169.9229801 366.55395508 171.32836914 C365.08556675 174.1457898 364.00935981 176.42649867 363.95703125 179.6328125 C365.38366819 182.87079747 367.54922181 185.14141902 370 187.625 C371.01416657 188.68907861 372.02584842 189.75553038 373.03515625 190.82421875 C373.53934082 191.35708496 374.04352539 191.88995117 374.56298828 192.43896484 C376.63126201 194.68574401 378.53327497 197.05110423 380.4375 199.4375 C383.80346662 203.62237799 387.33179641 207.58310464 391 211.5 C395.48835936 216.29342092 399.71410907 221.22256848 403.8203125 226.3515625 C406.85277147 230.03616319 410.08741019 233.52073738 413.34765625 237.00390625 C415 239 415 239 415 241 C413.9584375 241.57234375 412.916875 242.1446875 411.84375 242.734375 C408.48930815 244.65359974 405.51732022 246.82597308 402.5 249.25 C384.54232715 263.34482564 365.16252189 275.62476769 346 288 C345.26394531 288.47550293 344.52789062 288.95100586 343.76953125 289.44091797 C340.96036037 291.25363092 338.14764367 293.06058097 335.33203125 294.86328125 C331.08861861 297.58443801 326.8565404 300.32292996 322.625 303.0625 C321.86759521 303.55282715 321.11019043 304.0431543 320.32983398 304.54833984 C318.55311253 305.69872316 316.77653954 306.84933577 315 308 C315.32307129 308.61568848 315.64614258 309.23137695 315.97900391 309.86572266 C317.71736883 313.49957875 317.53692901 317.06252059 317 321 C313.05608392 329.21649184 303.9365707 334.94165116 297 340.625 C296.26724854 341.22618652 295.53449707 341.82737305 294.77954102 342.44677734 C293.26260669 343.69046495 291.74510975 344.93346664 290.22705078 346.17578125 C288.1157608 347.90517817 286.00874561 349.6396556 283.90234375 351.375 C276.77170269 357.23087492 269.54698585 362.91576679 262.13598633 368.4128418 C257.06880598 372.17585529 252.08991507 376.04089621 247.125 379.9375 C233.32880543 390.72227508 219.01077351 400.7451694 204.61450195 410.70849609 C203.68210693 411.35383301 202.74971191 411.99916992 201.7890625 412.6640625 C200.96100098 413.23592285 200.13293945 413.8077832 199.27978516 414.39697266 C197.7650351 415.46206678 196.28348246 416.5760652 194.84033203 417.73632812 C194.23302246 418.15333984 193.62571289 418.57035156 193 419 C187.98599951 418.0007062 183.78298346 414.11632046 179.75 411.125 C178.12698206 409.93526974 176.50326842 408.74648805 174.87890625 407.55859375 C174.0605127 406.95901855 173.24211914 406.35944336 172.39892578 405.74169922 C169.53391722 403.66160853 166.63588413 401.63280684 163.73022461 399.61010742 C153.69008154 392.61788635 143.99104786 385.20236285 134.28955078 377.75048828 C131.42054064 375.55697125 128.52583614 373.40122573 125.625 371.25 C119.18925607 366.44157989 112.94359971 361.40126474 106.69091797 356.35888672 C104.45078489 354.55862961 102.19276099 352.78124882 99.9375 351 C95.25558104 347.260697 90.72167548 343.35787807 86.19360352 339.43505859 C82.66449522 336.38769852 79.07093237 333.47054085 75.375 330.625 C70.48426988 326.72367745 67.35778204 323.91336801 66.5625 317.4375 C67.02463154 313.8064665 68.04909864 312.02726073 70 309 C64.01153241 304.62795682 57.84800687 300.61353451 51.5625 296.6875 C25.25185086 280.20256955 -0.30304679 262.47357797 -25.37207031 244.16650391 C-26.89145035 243.07778198 -28.44474884 242.03683411 -30 241 C-28.69346875 237.23141236 -27.1635582 234.77178104 -24.4375 231.875 C-21.39532102 228.56471532 -18.50110548 225.19438596 -15.6875 221.6875 C-11.98368284 217.11669638 -8.09320891 212.7870266 -4.08886719 208.48339844 C-0.29398333 204.38089297 3.23343055 200.10063934 6.72265625 195.734375 C8.35627271 193.77291441 9.98890548 191.92032864 11.74609375 190.078125 C12.65488281 189.12421875 13.56367187 188.1703125 14.5 187.1875 C15.3353125 186.33542969 16.170625 185.48335937 17.03125 184.60546875 C19.44239521 181.41452856 20.08538573 180.01787318 20 176 C18.75732929 172.4692676 17.08591421 169.19916337 15.375 165.875 C14.43706533 163.97741995 13.50085067 162.07898871 12.56640625 160.1796875 C12.11668457 159.27573242 11.66696289 158.37177734 11.20361328 157.44042969 C3.86207516 142.55482825 -1.2429309 126.42869105 -4.8125 110.25 C-5.10447266 108.94131958 -5.10447266 108.94131958 -5.40234375 107.60620117 C-8.33338993 93.58697631 -9.33575763 79.65008345 -9.26074219 65.36108398 C-9.2499895 62.93513105 -9.26073501 60.50991566 -9.2734375 58.08398438 C-9.28659233 44.31113737 -7.82879835 31.00931244 -5.0625 17.5 C-4.90587891 16.6853125 -4.74925781 15.870625 -4.58789062 15.03125 C-3.5304622 9.77359792 -2.00290891 4.97588765 0 0 Z " fill="#315edd" transform="translate(81,50)"/>
  <path d="M0 0 C-0.43189658 11.1645267 -3.82353279 20.20168707 -9 30 C-8.15566406 29.71125 -7.31132812 29.4225 -6.44140625 29.125 C26.90897487 18.98507744 75.12494962 26.56247481 106 42 C106 42.66 106 43.32 106 44 C105.05640625 44.18175781 104.1128125 44.36351562 103.140625 44.55078125 C95.02314188 46.14004752 87.01157317 47.93505921 79 50 C77.05863493 50.47787448 75.11725599 50.95569407 73.17553711 51.43212891 C57.6085079 55.26874642 42.86989964 60.21739711 28 66.1875 C26.84371094 66.65091797 25.68742187 67.11433594 24.49609375 67.59179688 C21.66374556 68.72707694 18.83172426 69.86316475 16 71 C17.61455078 70.89171875 17.61455078 70.89171875 19.26171875 70.78125 C28.19367704 70.20562351 37.04612553 69.8598524 46 70 C42.24798073 73.07251971 38.06094577 75.20856161 33.8125 77.5 C2.36713619 94.75590527 -26.26640097 116.9665203 -52.7890625 141 C-56.15470653 144.04454019 -59.56953428 147.02886783 -63 150 C-63.48952148 150.42651855 -63.97904297 150.85303711 -64.48339844 151.29248047 C-78.12683103 163.17034035 -92.05326403 173.97656741 -107.22924805 183.84594727 C-108.8263655 184.88683713 -110.41380662 185.94253774 -112 187 C-115.53899415 186.6604157 -118.08582023 185.5947651 -121.08203125 183.734375 C-121.84136963 183.26298096 -122.60070801 182.79158691 -123.38305664 182.3059082 C-124.18477295 181.7924585 -124.98648926 181.27900879 -125.8125 180.75 C-127.0663147 179.95178833 -127.0663147 179.95178833 -128.34545898 179.13745117 C-140.50631927 171.24262943 -151.33663166 161.78612597 -162 152 C-164.64913988 149.64644836 -167.32447524 147.32348203 -170 145 C-170.52722656 144.54109375 -171.05445313 144.0821875 -171.59765625 143.609375 C-175.43010946 140.27387726 -179.26937336 136.94641831 -183.11572266 133.62695312 C-184.30403282 132.60092321 -185.49134662 131.57373714 -186.67724609 130.54492188 C-210.70701137 109.72159369 -237.12732909 90.78949728 -265.16625977 75.7512207 C-268.17435519 74.1235055 -270.76607195 72.62385004 -273 70 C-265.99530264 69.87853126 -259.04752009 70.06529578 -252.05859375 70.50390625 C-251.27963745 70.55131958 -250.50068115 70.59873291 -249.69812012 70.64758301 C-247.79864699 70.7634312 -245.89930862 70.88148528 -244 71 C-273.5389699 59.26541325 -302.95587592 50.73741981 -334 44 C-334 43.34 -334 42.68 -334 42 C-307.84511714 32.08109315 -280.39545159 25.58440029 -252.3125 25.75 C-250.97590777 25.74284636 -249.63931889 25.7350353 -248.30273438 25.7265625 C-240.6134411 25.74181147 -233.50979483 26.4102171 -226 28 C-223.66995635 28.37052058 -221.338776 28.6881632 -219 29 C-219.48210937 28.09378906 -219.96421875 27.18757813 -220.4609375 26.25390625 C-224.71844825 18.10310981 -228.61420294 10.52014556 -228 1 C-224.35371092 2.35265563 -221.17432828 4.0092483 -217.875 6.0625 C-215.19748052 7.72679402 -213.00027598 8.99990801 -210 10 C-209.52517373 11.86538891 -209.05959335 13.73369108 -208.64453125 15.61328125 C-206.31383388 24.24392424 -201.89458023 30.525317 -194.20996094 35.05517578 C-191.61961759 36.16262483 -189.70588259 36.25450584 -186.89453125 36.2734375 C-185.41823242 36.304375 -185.41823242 36.304375 -183.91210938 36.3359375 C-181.86531573 36.361732 -179.81841353 36.3801077 -177.77148438 36.390625 C-170.99735019 36.54929047 -165.95394993 37.73061432 -160 41 C-160 41.33 -160 41.66 -160 42 C-171.43067484 43.93194504 -182.37442705 45.51968621 -194 45 C-192.51113281 45.87398438 -192.51113281 45.87398438 -190.9921875 46.765625 C-170.0784549 59.28794915 -153.7861282 75.9101893 -139.375 95.5 C-138.92447266 96.09973633 -138.47394531 96.69947266 -138.00976562 97.31738281 C-136.7734375 99.03125 -136.7734375 99.03125 -135 102 C-135.33 102.99 -135.66 103.98 -136 105 C-136.39700379 110.26030024 -135.99036646 113.60789925 -133 118 C-128.78633552 121.81369191 -124.18340975 124.66746561 -119 127 C-119 129.64 -119 132.28 -119 135 C-129.21531145 138.72271654 -138.00811992 139.45357207 -148.2265625 135.33984375 C-155.05346965 132.04177452 -161.14301272 127.7863552 -167 123 C-150.99100488 140.52408988 -150.99100488 140.52408988 -129.26464844 148.2746582 C-127.87967092 148.29442122 -126.49449235 148.30257637 -125.109375 148.30078125 C-123.99239227 148.30720894 -123.99239227 148.30720894 -122.85284424 148.31376648 C-121.28292858 148.31948493 -119.71298644 148.32002845 -118.14306641 148.31567383 C-115.77068533 148.31252743 -113.39956982 148.33595541 -111.02734375 148.36132812 C-100.35782116 148.40720829 -91.49516342 147.31885867 -82.0625 142 C-81.16660156 141.505 -80.27070313 141.01 -79.34765625 140.5 C-77.23892885 139.15266003 -75.75043246 137.75565763 -74 136 C-73.34 136 -72.68 136 -72 136 C-71.74476563 135.41734375 -71.48953125 134.8346875 -71.2265625 134.234375 C-69.88258913 131.78611777 -68.38189704 130.18256752 -66.375 128.25 C-65.74335938 127.63640625 -65.11171875 127.0228125 -64.4609375 126.390625 C-63.97882813 125.93171875 -63.49671875 125.4728125 -63 125 C-63.54140625 125.4228125 -64.0828125 125.845625 -64.640625 126.28125 C-76.57903476 134.97810479 -86.20789617 139.04677301 -101 138 C-103.79818278 137.52275891 -106.29044181 136.86705862 -109 136 C-109.79441916 132.75612177 -110.0202217 130.20934061 -109 127 C-106.15548143 124.78314515 -103.20599401 123.25786544 -100 121.61328125 C-96.05540664 119.49203508 -94.30620376 117.81716484 -92 114 C-91.07472269 110.29889077 -90.81782725 107.79329879 -91.671875 104.07421875 C-92.07585035 100.28935442 -91.40121438 99.29181171 -89.125 96.3125 C-88.4753125 95.45269531 -87.825625 94.59289062 -87.15625 93.70703125 C-86.4446875 92.81371094 -85.733125 91.92039062 -85 91 C-84.2884375 90.09636719 -83.576875 89.19273437 -82.84375 88.26171875 C-68.70828383 70.66704518 -53.16245969 56.78489722 -34 45 C-34.81678223 44.94465088 -35.63356445 44.88930176 -36.47509766 44.83227539 C-40.19194453 44.57869809 -43.90846758 44.32064338 -47.625 44.0625 C-49.55279297 43.93198242 -49.55279297 43.93198242 -51.51953125 43.79882812 C-52.76347656 43.71181641 -54.00742187 43.62480469 -55.2890625 43.53515625 C-56.43068848 43.456604 -57.57231445 43.37805176 -58.74853516 43.29711914 C-61.8714799 43.01174418 -64.91518322 42.55771853 -68 42 C-68 41.34 -68 40.68 -68 40 C-61.54144923 37.0944049 -56.62932324 36.77995634 -49.625 37.125 C-39.75526306 37.36745968 -33.88193477 35.92677362 -26.125 29.6875 C-22.3239848 24.88033372 -20.11586551 20.48028957 -19.4375 14.375 C-18.83217673 11.14846035 -18.31972667 10.23913222 -15.64453125 8.23828125 C-12.80455366 6.7167278 -9.92261807 5.35428358 -7 4 C-5.77207945 3.23906854 -4.5584444 2.45341108 -3.375 1.625 C-1 0 -1 0 0 0 Z " fill="#FCFBFB" transform="translate(387,246)"/>
  <path d="M0 0 C8.16897433 0.51209895 15.8832487 2.21724568 23.8125 4.1875 C24.45127075 4.34539001 25.0900415 4.50328003 25.74816895 4.66595459 C30.16987523 5.7600431 34.58517137 6.87845423 39 8 C40.41514893 8.34973877 40.41514893 8.34973877 41.85888672 8.70654297 C59.49886878 13.09875966 76.20042016 20.15724802 93 27 C93 27.33 93 27.66 93 28 C91.75605469 27.9278125 90.51210937 27.855625 89.23046875 27.78125 C80.48124723 27.28819995 71.76731492 26.82268352 63 27 C63.82757813 27.41507812 64.65515625 27.83015625 65.5078125 28.2578125 C89.88591047 40.74168749 112.75721559 56.76376606 134 74 C134.91523438 74.73347656 135.83046875 75.46695313 136.7734375 76.22265625 C146.44819384 84.03906497 155.84683607 92.21080457 165.0625 100.5625 C170.72085392 105.68509615 176.50854878 110.65171282 182.33203125 115.58496094 C183.83014288 116.85589991 185.32174731 118.13449978 186.8125 119.4140625 C193.60394184 125.13423524 200.78603728 130.08608646 208.24902344 134.875 C209.85292846 135.90550674 211.44655108 136.95197192 213.0390625 138 C213.91304687 138.556875 214.78703125 139.11375 215.6875 139.6875 C216.80705078 140.40486328 216.80705078 140.40486328 217.94921875 141.13671875 C220.50470309 142.21245597 221.40166776 141.83851533 224 141 C226.51372162 139.59578309 228.94333559 138.15955113 231.375 136.625 C232.08180908 136.18019287 232.78861816 135.73538574 233.5168457 135.27709961 C240.7325215 130.65419154 247.41218107 125.46931155 254 120 C254.57411621 119.52353027 255.14823242 119.04706055 255.73974609 118.55615234 C259.52213289 115.40398651 263.26811144 112.21174713 267 109 C267.71542969 108.38640625 268.43085938 107.7728125 269.16796875 107.140625 C272.59380656 104.17392009 275.94243543 101.13393402 279.26733398 98.05444336 C284.45128916 93.25873194 289.73298718 88.66374142 295.23828125 84.234375 C298.09111595 81.92628243 300.88809622 79.56000415 303.6875 77.1875 C326.64763901 58.04911316 352.23698616 40.38150692 379 27 C368.97644511 26.79727642 359.00152811 27.41960044 349 28 C351.82745248 25.71703967 354.48061291 24.23824197 357.859375 22.9140625 C358.80216309 22.54313477 359.74495117 22.17220703 360.71630859 21.79003906 C361.71742676 21.40557617 362.71854492 21.02111328 363.75 20.625 C364.78334473 20.22506836 365.81668945 19.82513672 366.88134766 19.41308594 C375.1682337 16.24256326 383.48483079 13.48757752 392 11 C393.41070944 10.56690195 394.8208511 10.13195094 396.23046875 9.6953125 C404.26603742 7.23105935 412.21564829 5.23079686 420.484375 3.69140625 C424.81907298 2.83891565 429.05987116 1.72812074 433.31640625 0.55078125 C436.27172726 -0.05576935 438.99110977 -0.09278516 442 0 C423.16081439 19.41728336 397.64102327 33.37833776 375 48 C374.26394531 48.47550293 373.52789062 48.95100586 372.76953125 49.44091797 C369.96036037 51.25363092 367.14764367 53.06058097 364.33203125 54.86328125 C360.08861861 57.58443801 355.8565404 60.32292996 351.625 63.0625 C350.86759521 63.55282715 350.11019043 64.0431543 349.32983398 64.54833984 C347.55311253 65.69872316 345.77653954 66.84933577 344 68 C344.32307129 68.61568848 344.64614258 69.23137695 344.97900391 69.86572266 C346.71736883 73.49957875 346.53692901 77.06252059 346 81 C342.05608392 89.21649184 332.9365707 94.94165116 326 100.625 C325.26724854 101.22618652 324.53449707 101.82737305 323.77954102 102.44677734 C322.26260669 103.69046495 320.74510975 104.93346664 319.22705078 106.17578125 C317.1157608 107.90517817 315.00874561 109.6396556 312.90234375 111.375 C305.77170269 117.23087492 298.54698585 122.91576679 291.13598633 128.4128418 C286.06880598 132.17585529 281.08991507 136.04089621 276.125 139.9375 C262.32880543 150.72227508 248.01077351 160.7451694 233.61450195 170.70849609 C232.68210693 171.35383301 231.74971191 171.99916992 230.7890625 172.6640625 C229.96100098 173.23592285 229.13293945 173.8077832 228.27978516 174.39697266 C226.7650351 175.46206678 225.28348246 176.5760652 223.84033203 177.73632812 C223.23302246 178.15333984 222.62571289 178.57035156 222 179 C216.98599951 178.0007062 212.78298346 174.11632046 208.75 171.125 C207.12698206 169.93526974 205.50326842 168.74648805 203.87890625 167.55859375 C203.0605127 166.95901855 202.24211914 166.35944336 201.39892578 165.74169922 C198.53391722 163.66160853 195.63588413 161.63280684 192.73022461 159.61010742 C182.69008154 152.61788635 172.99104786 145.20236285 163.28955078 137.75048828 C160.42054064 135.55697125 157.52583614 133.40122573 154.625 131.25 C148.18925607 126.44157989 141.94359971 121.40126474 135.69091797 116.35888672 C133.45078489 114.55862961 131.19276099 112.78124882 128.9375 111 C124.25558104 107.260697 119.72167548 103.35787807 115.19360352 99.43505859 C111.66449522 96.38769852 108.07093237 93.47054085 104.375 90.625 C99.48426988 86.72367745 96.35778204 83.91336801 95.5625 77.4375 C96.02463154 73.8064665 97.04909864 72.02726073 99 69 C93.01153241 64.62795682 86.84800687 60.61353451 80.5625 56.6875 C59.95308366 43.77467549 39.86293938 30.0277462 20 16 C19.10732422 15.3709375 18.21464844 14.741875 17.29492188 14.09375 C14.75394673 12.29880067 12.21934308 10.49530099 9.6875 8.6875 C8.9339624 8.15406982 8.1804248 7.62063965 7.40405273 7.07104492 C6.71770752 6.57709229 6.0313623 6.08313965 5.32421875 5.57421875 C4.4283606 4.93359497 4.4283606 4.93359497 3.5144043 4.2800293 C2 3 2 3 0 0 Z " fill="#274aae" transform="translate(52,290)"/>
  <path d="M0 0 C2.7851179 8.17921975 5.26228313 16.28894014 6.75 24.8125 C6.86512939 25.46790771 6.98025879 26.12331543 7.09887695 26.79858398 C7.43706222 28.86220428 7.72892227 30.92650134 8 33 C8.14465698 34.09465576 8.14465698 34.09465576 8.29223633 35.21142578 C9.29300571 44.23528216 9.18607731 53.31026033 9.18530273 62.37744141 C9.18748443 65.22964519 9.20568036 68.08145828 9.22460938 70.93359375 C9.27547053 86.54669377 7.57123095 100.94700553 3.6875 116.125 C3.40455078 117.28386719 3.12160156 118.44273437 2.83007812 119.63671875 C1.05055873 126.69955624 -1.16587054 133.42214641 -3.88330078 140.18017578 C-4.8745207 142.68314694 -5.74999948 145.18459401 -6.5625 147.75 C-9.90989336 157.95771053 -15.16620811 167.43800876 -20 177 C-24 177 -24 177 -25.53515625 175.671875 C-26.03917969 175.03765625 -26.54320312 174.4034375 -27.0625 173.75 C-30.05546204 170.11614673 -33.16515092 166.6295132 -36.375 163.1875 C-40.67029091 158.54528456 -44.6968928 153.74328708 -48.66015625 148.8125 C-51.76833184 145.07646256 -55.04799535 141.51564324 -58.37109375 137.97070312 C-60.47200591 135.72016204 -62.28590221 133.57114669 -64 131 C-70.10155741 130.32204918 -75.30229499 131.6832185 -81.16796875 133.34375 C-83.89291396 133.97518558 -86.21613914 134.1221438 -89 134 C-87.73934799 130.58366663 -86.30076708 127.73943126 -84.19921875 124.76953125 C-83.36185181 123.5791626 -83.36185181 123.5791626 -82.50756836 122.36474609 C-81.9069458 121.52250488 -81.30632324 120.68026367 -80.6875 119.8125 C-80.06302979 118.92900879 -79.43855957 118.04551758 -78.79516602 117.13525391 C-73.12537923 109.13076491 -67.38581303 101.17673204 -61.62207031 93.23974609 C-59.95779006 90.94171674 -58.30203458 88.63775787 -56.6484375 86.33203125 C-51.07196518 78.56271042 -45.43477305 70.86575127 -39.55859375 63.3203125 C-37.60070288 60.7975705 -35.68693765 58.24498554 -33.78515625 55.6796875 C-33.23931885 54.94443848 -32.69348145 54.20918945 -32.13110352 53.45166016 C-31.06189952 52.00845081 -29.99586197 50.56288901 -28.93334961 49.11474609 C-25.22052553 44.11026277 -25.22052553 44.11026277 -23 43 C-24.50002342 47.3145835 -26.79166159 50.83905426 -29.375 54.5625 C-35.65302518 63.80274876 -41.3168841 73.38682962 -47 83 C-48.12343475 84.89208336 -49.24713696 86.78400795 -50.37109375 88.67578125 C-56.33825771 98.73292453 -62.24857493 108.81771876 -68 119 C-66.9941687 118.47043701 -66.9941687 118.47043701 -65.96801758 117.93017578 C-62.91750219 116.32591858 -59.86502739 114.72542528 -56.8125 113.125 C-55.22985352 112.29162109 -55.22985352 112.29162109 -53.61523438 111.44140625 C-52.08286133 110.63896484 -52.08286133 110.63896484 -50.51953125 109.8203125 C-49.11344604 109.08192139 -49.11344604 109.08192139 -47.67895508 108.32861328 C-45.15822574 107.0784712 -42.62705595 106.0041562 -40 105 C-40 104.34 -40 103.68 -40 103 C-39.34 103 -38.68 103 -38 103 C-38.59104746 107.46017328 -39.20023271 111.91769415 -39.8125 116.375 C-39.97814453 117.62667969 -40.14378906 118.87835938 -40.31445312 120.16796875 C-41.21536222 126.66131352 -42.29096837 132.75789914 -44.51831055 138.93603516 C-45.0845643 141.36234496 -44.85789959 142.67768153 -44 145 C-42.22750891 147.38816829 -42.22750891 147.38816829 -40.0625 149.6875 C-39.35222656 150.47511719 -38.64195312 151.26273438 -37.91015625 152.07421875 C-36.14189912 154.06242102 -36.14189912 154.06242102 -34 155 C-33.72414063 154.11441406 -33.44828125 153.22882813 -33.1640625 152.31640625 C-32.10918495 149.3110672 -30.88418119 146.73243611 -29.375 143.9375 C-24.80746036 134.93643166 -21.3957207 125.49274813 -18 116 C-17.73767578 115.2874707 -17.47535156 114.57494141 -17.20507812 113.84082031 C-7.20195987 86.23058741 -8.83290491 55.53425754 -13 27 C-23.09497138 30.59546926 -32.50965526 35.06122562 -42 40 C-42.94488281 40.48210937 -43.88976562 40.96421875 -44.86328125 41.4609375 C-57.99007274 48.35300101 -70.36381577 56.83959965 -82 66 C-82.89847656 66.70511719 -83.79695313 67.41023438 -84.72265625 68.13671875 C-90.61166768 72.85640129 -96.1774638 77.84355834 -101.58569336 83.1027832 C-106.71076262 87.98026458 -106.71076262 87.98026458 -110 88 C-112.55078125 87.07421875 -112.55078125 87.07421875 -115.3125 85.6875 C-119.52599983 83.65417569 -123.46310087 82.10901979 -128 81 C-126.42840852 77.14245727 -123.98922513 74.85637068 -121 72 C-120.50628906 71.48566406 -120.01257813 70.97132812 -119.50390625 70.44140625 C-90.05320156 39.86069851 -46.89409136 16.37515708 -7.37109375 1.875 C-2.29017857 0 -2.29017857 0 0 0 Z " fill="#274aae" transform="translate(465,50)"/>
  <path d="M0 0 C13.93917419 4.30847202 27.11435811 10.35043158 40.06005859 17.01904297 C41.90778603 17.95337079 43.76933496 18.84500166 45.64453125 19.72265625 C54.5085298 23.91380511 62.89400561 28.82008998 71.25 33.9375 C72.32685059 34.59363281 73.40370117 35.24976563 74.51318359 35.92578125 C84.94167566 42.38751948 94.63315327 49.74231146 104.125 57.5 C104.80095215 58.05115479 105.4769043 58.60230957 106.17333984 59.17016602 C111.60064658 63.62123126 116.88275275 68.19288895 122 73 C122.639375 73.598125 123.27875 74.19625 123.9375 74.8125 C125.33835486 76.16147135 126.67801622 77.57364908 128 79 C128 79.66 128 80.32 128 81 C125.25078962 81.98143209 122.50068729 82.9602233 119.75 83.9375 C118.97269531 84.21529297 118.19539063 84.49308594 117.39453125 84.77929688 C116.64042969 85.04677734 115.88632813 85.31425781 115.109375 85.58984375 C114.41811523 85.83597412 113.72685547 86.08210449 113.01464844 86.33569336 C108.88029561 87.69894761 108.88029561 87.69894761 107 88 C104.80859375 86.2265625 104.80859375 86.2265625 102.4375 83.625 C97.29978022 78.23189649 91.84912984 73.59857163 86 69 C85.03707031 68.22011719 84.07414062 67.44023438 83.08203125 66.63671875 C62.44891918 50.24006315 37.96600254 35.66167435 13 27 C11.19592628 38.93823465 10.59935187 50.62504091 10.625 62.6875 C10.62487915 63.56574432 10.6247583 64.44398865 10.62463379 65.34884644 C10.64909954 77.85041781 11.18664171 89.82197933 14.453125 101.9609375 C14.97834496 103.91925763 15.4284147 105.8972651 15.875 107.875 C19.40710682 122.76030732 25.6355236 136.94686398 32.75 150.4453125 C34 153 34 153 34 155 C35.17420735 153.82579265 36.34320404 152.64601467 37.48876953 151.44384766 C39 150 39 150 42.3046875 147.7734375 C44.72206284 145.34710616 44.99627748 144.25378387 45.04736328 140.77099609 C44.52822108 136.716668 43.81182631 132.75333591 43 128.75 C42.74559045 127.36905846 42.4942595 125.987546 42.24609375 124.60546875 C41.54024718 120.72817571 40.77649848 116.86380659 40 113 C39.78988281 111.93974609 39.57976562 110.87949219 39.36328125 109.78710938 C38.9134833 107.52376439 38.45957431 105.26137594 38 103 C40.57421467 104.26570566 43.0888647 105.59154349 45.57421875 107.0234375 C46.57678711 107.59578125 46.57678711 107.59578125 47.59960938 108.1796875 C48.97346023 108.9662139 50.34589973 109.75521158 51.71679688 110.546875 C56.67817019 113.37111425 61.74675666 115.76773495 67 118 C60.9590264 106.86562314 54.82100995 95.82689673 48.22167969 85.01367188 C46.86758654 82.78174537 45.53032084 80.54026749 44.1953125 78.296875 C43.19294815 76.61444043 42.1903396 74.93215133 41.1875 73.25 C40.69040527 72.4161377 40.19331055 71.58227539 39.68115234 70.72314453 C37.02724808 66.29657159 34.32251782 61.91176429 31.53125 57.5703125 C30.97155518 56.69858398 30.41186035 55.82685547 29.83520508 54.92871094 C28.75383154 53.25273417 27.66534058 51.58132399 26.5690918 49.91503906 C26.08609619 49.16706055 25.60310059 48.41908203 25.10546875 47.6484375 C24.45807739 46.66109619 24.45807739 46.66109619 23.79760742 45.65380859 C23.53439697 45.10805176 23.27118652 44.56229492 23 44 C23.495 43.01 23.495 43.01 24 42 C27.75 47 27.75 47 28.96582031 48.62255859 C31.2431171 51.66097472 33.5244113 54.6962632 35.8125 57.7265625 C41.7035553 65.53872173 47.4990091 73.41211213 53.21166992 81.35571289 C56.63315443 86.11303504 60.08453389 90.84635782 63.5625 95.5625 C68.48498577 102.24762259 73.27631973 109.02117926 78.05078125 115.8125 C82.33176082 121.9002485 86.66613477 127.94984744 91 134 C87.06573058 135.31142314 85.29170742 134.32967005 81.375 133.0625 C73.2654313 130.33155034 73.2654313 130.33155034 65 131 C58.77665604 135.55579295 54.16807974 142.13586555 49.3828125 148.11328125 C46.41854325 151.70442055 43.27474077 155.09747542 40.09960938 158.5012207 C36.20370481 162.7060305 32.60412696 167.11031688 29.0703125 171.625 C26.91181302 174.10116544 24.61997089 176.02817522 22 178 C13.29875915 164.94813872 7.60429267 151.00255687 2.72558594 136.17236328 C2.13181632 134.3946506 1.4973637 132.63057252 0.8515625 130.87109375 C-1.53407501 124.31536187 -3.10588361 117.61079551 -4.625 110.8125 C-4.83141113 109.90459717 -5.03782227 108.99669434 -5.25048828 108.0612793 C-8.30291453 93.88398679 -9.33668777 79.82725703 -9.26074219 65.36108398 C-9.2499895 62.93513105 -9.26073501 60.50991566 -9.2734375 58.08398438 C-9.28659233 44.31113737 -7.82879835 31.00931244 -5.0625 17.5 C-4.90587891 16.6853125 -4.74925781 15.870625 -4.58789062 15.03125 C-3.5304622 9.77359792 -2.00290891 4.97588765 0 0 Z " fill="#274aae" transform="translate(81,50)"/>
  <path d="M0 0 C0.66 0.33 1.32 0.66 2 1 C10.00382895 28.46114491 5.7999755 63.73432172 -4 90 C-4.38140137 91.02319336 -4.76280273 92.04638672 -5.15576172 93.10058594 C-9.45518456 104.4747739 -13.95211772 115.43049439 -20 126 C-25.25952325 123.49507101 -28.98796863 120.02521429 -32 115 C-32.27978705 111.41250823 -31.06779325 108.39876321 -30 105 C-29.46909474 102.39720292 -28.96853748 99.80110414 -28.5 97.1875 C-28.37214111 96.50727783 -28.24428223 95.82705566 -28.11254883 95.1262207 C-27.07632163 89.59639853 -26.21761836 84.04737194 -25.4296875 78.4765625 C-25 76 -25 76 -24 74 C-24.66 74 -25.32 74 -26 74 C-26 74.66 -26 75.32 -26 76 C-29.5039759 77.83592349 -33.00945929 79.66893188 -36.51635742 81.49926758 C-38.29491205 82.42831276 -40.07226721 83.359653 -41.84960938 84.29101562 C-42.96787109 84.87431641 -44.08613281 85.45761719 -45.23828125 86.05859375 C-46.26993408 86.59798584 -47.30158691 87.13737793 -48.36450195 87.69311523 C-51 89 -51 89 -54 90 C-52.73012342 85.80393635 -51.15754846 82.28097362 -48.875 78.54296875 C-48.25616943 77.52178955 -47.63733887 76.50061035 -46.99975586 75.44848633 C-46.33983643 74.37236084 -45.67991699 73.29623535 -45 72.1875 C-43.62562651 69.92488939 -42.25192929 67.66186786 -40.87890625 65.3984375 C-40.21004395 64.29854492 -39.54118164 63.19865234 -38.85205078 62.06542969 C-36.50094521 58.17398735 -34.21578868 54.24679851 -31.9375 50.3125 C-27.44668364 42.5957646 -22.65276183 35.07779847 -17.82006836 27.5715332 C-14.22286411 21.97818352 -14.22286411 21.97818352 -10.84765625 16.25 C-8.96548063 12.93928094 -6.93471345 9.78642116 -4.8125 6.625 C-4.11769531 5.58601563 -3.42289062 4.54703125 -2.70703125 3.4765625 C-1 1 -1 1 0 0 Z " fill="#FAFAFA" transform="translate(451,79)"/>
  <path d="M0 0 C2.91702077 1.45851039 3.47625734 3.88256828 4.83984375 6.71289062 C6.79131395 10.55998086 9.16063784 14.13034228 11.5 17.75 C17.33825468 26.88934912 22.94327783 36.15306693 28.49121094 45.47070312 C30.52002327 48.87175422 32.56205358 52.26478493 34.60400391 55.65795898 C36.59107496 58.96262081 38.57143915 62.27127092 40.55078125 65.58056641 C41.52002515 67.19869428 42.49139441 68.81555092 43.46484375 70.43115234 C44.85704768 72.74253157 46.24179802 75.05822564 47.625 77.375 C48.0389502 78.05844482 48.45290039 78.74188965 48.87939453 79.44604492 C51.11343192 83.20722324 52.7800358 86.76292005 54 91 C47.70168942 89.31295252 42.33391881 86.69148196 36.6875 83.5 C35.99398437 83.10820557 35.30046875 82.71641113 34.5859375 82.31274414 C31.23105431 80.38409345 28.02672859 78.42760751 25 76 C25.18175781 76.50144531 25.36351563 77.00289063 25.55078125 77.51953125 C27.77132465 84.20393626 28.93754188 90.93253185 29.91601562 97.88793945 C30.42931651 101.52800262 30.98890382 104.96045886 31.984375 108.5078125 C32.84357501 111.61228046 33.37096189 113.79415649 33 117 C30.2107995 121.34708408 27.03510752 124.73593214 23 128 C22.34 128 21.68 128 21 128 C11.94456476 110.77740109 3.8825779 93.14278986 0 74 C-0.20062546 73.01622375 -0.20062546 73.01622375 -0.40530396 72.01257324 C-2.63343248 60.77571169 -3.47662541 49.8788144 -3.39111328 38.43115234 C-3.37496173 35.86892884 -3.39111205 33.30827156 -3.41015625 30.74609375 C-3.42155411 20.1742028 -2.36534179 10.30369467 0 0 Z " fill="#FAFAFA" transform="translate(94,77)"/>
  <path d="M0 0 C1.258125 -0.020625 2.51625 -0.04125 3.8125 -0.0625 C5.029375 -0.06765625 6.24625 -0.0728125 7.5 -0.078125 C9.15515625 -0.09214355 9.15515625 -0.09214355 10.84375 -0.10644531 C15.07538527 0.37144667 18.68146976 1.64483275 21.4375 5 C22.32599405 8.5539762 22.00570199 10.70046357 21 14.25 C17.77198116 19.42663998 14.22749824 22.34843689 8.625 24.6875 C6.05067814 25.71895496 6.05067814 25.71895496 4 27.25 C2.8622087 30.3013494 2.76089559 33.02209048 3 36.25 C18.18484409 38.67957505 29.74677212 37.42779367 42.5625 28.5625 C44.04586587 27.46398111 45.52568285 26.3606336 47 25.25 C47.99 24.59 48.98 23.93 50 23.25 C48.63757574 26.31713244 47.10300295 28.36840293 44.6875 30.6875 C42.61006256 32.68831065 40.62217432 34.6686717 38.6875 36.8125 C29.58345623 45.06965598 18.4875111 49.36216311 6.3046875 49.48828125 C5.55720245 49.496353 4.80971741 49.50442474 4.0395813 49.51274109 C2.45772597 49.52654837 0.87584127 49.53728548 -0.70605469 49.54516602 C-2.30803285 49.55664567 -3.90997397 49.57703358 -5.51171875 49.60668945 C-21.3739847 49.90001028 -31.95546767 46.66658346 -43.85107422 35.51464844 C-47.98493784 31.50761575 -52.00872531 27.39859501 -56 23.25 C-55.67 22.59 -55.34 21.93 -55 21.25 C-54.47792969 21.75789063 -53.95585937 22.26578125 -53.41796875 22.7890625 C-43.67211304 31.90340042 -33.42572273 37.67847462 -19.8671875 37.453125 C-15.48160441 37.14242974 -11.26631493 36.28650168 -7 35.25 C-6.84232846 31.09680036 -6.84232846 31.09680036 -8 27.25 C-10.37125997 25.6572963 -12.78525977 24.64618319 -15.4140625 23.53515625 C-19.25943756 21.62408617 -21.69898735 18.83312671 -24 15.25 C-25.20776206 11.62671381 -25.40040892 9.05388473 -25 5.25 C-18.83179974 -1.64387088 -8.49282806 0.03480667 0 0 Z " fill="#0D152C" transform="translate(275,345.75)"/>
  <path d="M0 0 C0 0.66 0 1.32 0 2 C-2.90548882 4.04169485 -4.40142046 5 -8 5 C-8 5.66 -8 6.32 -8 7 C-10.1953125 8.65625 -10.1953125 8.65625 -13.125 10.5 C-14.55199219 11.41265625 -14.55199219 11.41265625 -16.0078125 12.34375 C-18.95750953 13.97648047 -21.77485739 15.04298439 -25 16 C-25.02578125 16.556875 -25.0515625 17.11375 -25.078125 17.6875 C-25.6190682 24.96564485 -27.58755092 30.2066379 -32.375 35.75 C-40.38395229 42.61481625 -45.94321452 44.22753977 -56.1875 43.875 C-68.7494504 43.68534926 -76.65189897 46.39353798 -86 55 C-88.44832531 57.57932427 -90.76556734 60.23390169 -93 63 C-94.60605552 59.78788895 -93.06533273 57.22183521 -92.01171875 53.91796875 C-86.33024041 37.53162002 -78.8468899 25.43179794 -62.99609375 17.49609375 C-51.84646936 12.63795252 -40.09180406 10.27124567 -28.24633789 7.70483398 C-24.84555275 6.96646693 -21.44651222 6.22224429 -18.05078125 5.4609375 C-17.02637939 5.23325684 -16.00197754 5.00557617 -14.9465332 4.77099609 C-11.11689431 3.7689247 -7.54789653 2.35235413 -3.92578125 0.76953125 C-2 0 -2 0 0 0 Z " fill="#0D1328" transform="translate(394,240)"/>
  <path d="M0 0 C0.53874756 0.18393311 1.07749512 0.36786621 1.63256836 0.55737305 C7.2385202 2.45134903 12.87293911 4.18809073 18.5625 5.8125 C19.45582031 6.06894287 20.34914062 6.32538574 21.26953125 6.58959961 C27.27898687 8.29169076 33.31440689 9.83641876 39.38427734 11.30737305 C72.92271876 19.43575412 72.92271876 19.43575412 83 34 C86.00448161 39.34338969 88.19715714 44.9025814 90.1875 50.6875 C90.44724609 51.42033203 90.70699219 52.15316406 90.97460938 52.90820312 C92.25664988 56.58206079 93.36919873 60.14679226 94 64 C91.95921051 62.03040084 90.22248933 59.99763851 88.5 57.75 C82.47678045 50.67796113 72.73381997 44.62663135 63.33447266 43.75195312 C59.38384805 43.63078897 55.44044618 43.61768135 51.48828125 43.6484375 C43.71244465 43.52517457 38.87256577 41.70918685 33.24658203 36.32055664 C28.49923262 31.33855032 25.23436657 25.33972369 24.75 18.4375 C24.8325 17.633125 24.915 16.82875 25 16 C24.44570312 15.88785156 23.89140625 15.77570313 23.3203125 15.66015625 C14.54691175 13.16402035 6.65456595 7.04829313 0 1 C0 0.67 0 0.34 0 0 Z " fill="#0E1529" transform="translate(152,240)"/>
  <path d="M0 0 C2.29409437 2.13740418 3.90307658 4.26918491 5.49609375 6.96484375 C5.96611816 7.75463623 6.43614258 8.54442871 6.92041016 9.3581543 C7.4210498 10.20933838 7.92168945 11.06052246 8.4375 11.9375 C9.51678003 13.75529565 10.59621137 15.57300147 11.67578125 17.390625 C12.2270166 18.32197266 12.77825195 19.25332031 13.34619141 20.21289062 C15.42429169 23.71504487 17.52294734 27.20456537 19.6237793 30.69311523 C21.60524871 33.98546732 23.57833615 37.28280213 25.55078125 40.58056641 C26.52002515 42.19869428 27.49139441 43.81555092 28.46484375 45.43115234 C29.85704768 47.74253157 31.24179802 50.05822564 32.625 52.375 C33.0389502 53.05844482 33.45290039 53.74188965 33.87939453 54.44604492 C36.11343192 58.20722324 37.7800358 61.76292005 39 66 C32.70168942 64.31295252 27.33391881 61.69148196 21.6875 58.5 C20.99398437 58.10820557 20.30046875 57.71641113 19.5859375 57.31274414 C16.23105431 55.38409345 13.02672859 53.42760751 10 51 C10.18175781 51.50144531 10.36351563 52.00289062 10.55078125 52.51953125 C12.77132465 59.20393626 13.93754188 65.93253185 14.91601562 72.88793945 C15.42931651 76.52800262 15.98890382 79.96045886 16.984375 83.5078125 C17.84357501 86.61228046 18.37096189 88.79415649 18 92 C15.2107995 96.34708408 12.03510752 99.73593214 8 103 C7.34 103 6.68 103 6 103 C6.15984375 102.47664063 6.3196875 101.95328125 6.484375 101.4140625 C8.2306778 93.23819031 7.49688094 84.75841849 4.55859375 76.98828125 C4 75 4 75 5 72 C5.66 73.32 6.32 74.64 7 76 C6.8453125 75.28537598 6.690625 74.57075195 6.53125 73.83447266 C6.01728942 71.09224731 5.72070229 68.42839955 5.5 65.6484375 C5.37625 64.12283203 5.37625 64.12283203 5.25 62.56640625 C5.12625 60.98666016 5.12625 60.98666016 5 59.375 C4.83374786 57.29944592 4.66708326 55.22392484 4.5 53.1484375 C4.41878906 52.13491211 4.33757812 51.12138672 4.25390625 50.07714844 C3.86648951 45.38195557 3.43689539 40.6908157 3 36 C8.72220409 40.26362036 14.3798165 44.6027268 20 49 C17.65723768 43.34846621 15.00630017 37.89772906 12.25 32.4375 C11.81115479 31.5614209 11.37230957 30.6853418 10.92016602 29.78271484 C8.91076081 25.77416959 6.88915774 21.77321347 4.82421875 17.79296875 C4.50227539 17.16656494 4.18033203 16.54016113 3.84863281 15.89477539 C2.9976329 14.24180155 2.13781819 12.59337412 1.27734375 10.9453125 C-0.04225968 7.90255719 -0.69471768 5.29704908 -1 2 C-0.67 1.34 -0.34 0.68 0 0 Z " fill="#C8C7C6" transform="translate(109,102)"/>
  <path d="M0 0 C0.495 1.98 0.495 1.98 1 4 C0.34 4 -0.32 4 -1 4 C-1.0825 4.825 -1.165 5.65 -1.25 6.5 C-2.00772258 10.03603873 -3.16757165 12.62569388 -4.8671875 15.77734375 C-6.09607319 18.18850223 -7.13851655 20.65965296 -8.19238281 23.15112305 C-9.49621697 26.13598885 -10.96937804 29.03068391 -12.4375 31.9375 C-12.74316895 32.54577637 -13.04883789 33.15405273 -13.36376953 33.78076172 C-14.6676143 36.37394106 -15.98050693 38.96211945 -17.30859375 41.54296875 C-18.91479371 44.67888296 -20.23455031 47.5629808 -21 51 C-15.02564878 47.31121019 -9.24790147 43.68056077 -4 39 C-3.79911011 46.63474592 -4.35059916 53.89390979 -5.5 61.4375 C-5.78361149 63.35251634 -6.0649545 65.26787036 -6.34375 67.18359375 C-6.46943359 68.01431396 -6.59511719 68.84503418 -6.72460938 69.70092773 C-7.07928879 72.27601698 -7.07928879 72.27601698 -7 76 C-6.505 74.02 -6.505 74.02 -6 72 C-5.34 72 -4.68 72 -4 72 C-4.433125 73.4540625 -4.433125 73.4540625 -4.875 74.9375 C-7.66521229 84.82509722 -8.49046644 93.75470112 -8 104 C-11 104 -11 104 -13.11328125 102.3828125 C-18.88415072 96.45818985 -18.88415072 96.45818985 -19.1796875 92.73828125 C-18.6143064 90.09534898 -17.8101551 87.57870645 -17 85 C-16.46909474 82.39720292 -15.96853748 79.80110414 -15.5 77.1875 C-15.37214111 76.50727783 -15.24428223 75.82705566 -15.11254883 75.1262207 C-14.07632163 69.59639853 -13.21761836 64.04737194 -12.4296875 58.4765625 C-12 56 -12 56 -11 54 C-11.66 54 -12.32 54 -13 54 C-13 54.66 -13 55.32 -13 56 C-16.5039759 57.83592349 -20.00945929 59.66893188 -23.51635742 61.49926758 C-25.29491205 62.42831276 -27.07226721 63.359653 -28.84960938 64.29101562 C-29.96787109 64.87431641 -31.08613281 65.45761719 -32.23828125 66.05859375 C-33.26993408 66.59798584 -34.30158691 67.13737793 -35.36450195 67.69311523 C-38 69 -38 69 -41 70 C-39.73012342 65.80393635 -38.15754846 62.28097362 -35.875 58.54296875 C-35.25616943 57.52178955 -34.63733887 56.50061035 -33.99975586 55.44848633 C-33.33983643 54.37236084 -32.67991699 53.29623535 -32 52.1875 C-30.62562651 49.92488939 -29.25192929 47.66186786 -27.87890625 45.3984375 C-26.87561279 43.74859863 -26.87561279 43.74859863 -25.85205078 42.06542969 C-23.5009449 38.17398684 -21.21580841 34.2467876 -18.9375 30.3125 C-12.94264244 20.0127834 -6.44973238 10.01847246 0 0 Z " fill="#D1D0CF" transform="translate(438,99)"/>
  <path d="M0 0 C0.495 1.98 0.495 1.98 1 4 C0.34 4 -0.32 4 -1 4 C-1.0825 4.825 -1.165 5.65 -1.25 6.5 C-2.00772258 10.03603873 -3.16757165 12.62569388 -4.8671875 15.77734375 C-5.79208554 17.59205748 -6.6216567 19.45508657 -7.421875 21.328125 C-8.95518275 24.89572223 -10.62444203 28.3470289 -12.375 31.8125 C-12.68099121 32.4214209 -12.98698242 33.0303418 -13.30224609 33.65771484 C-14.65408097 36.3465137 -16.01545782 39.03009063 -17.390625 41.70703125 C-23.26726682 51.93977065 -23.26726682 51.93977065 -26 63 C-28.12232979 64.17176518 -30.24757791 65.33754785 -32.375 66.5 C-32.97828125 66.83386719 -33.5815625 67.16773438 -34.203125 67.51171875 C-38.7734375 70 -38.7734375 70 -41 70 C-39.73012342 65.80393635 -38.15754846 62.28097362 -35.875 58.54296875 C-35.25616943 57.52178955 -34.63733887 56.50061035 -33.99975586 55.44848633 C-33.33983643 54.37236084 -32.67991699 53.29623535 -32 52.1875 C-30.62562651 49.92488939 -29.25192929 47.66186786 -27.87890625 45.3984375 C-26.87561279 43.74859863 -26.87561279 43.74859863 -25.85205078 42.06542969 C-23.5009449 38.17398684 -21.21580841 34.2467876 -18.9375 30.3125 C-12.94264244 20.0127834 -6.44973238 10.01847246 0 0 Z " fill="#C0BCBA" transform="translate(438,99)"/>
  <path d="M0 0 C0.47966719 5.87592303 -0.48532516 9.41266465 -4 14 C-9.40502157 19.12784098 -14.24252708 20.44517897 -21.55078125 20.3359375 C-25.24692295 19.8289707 -27.17589207 18.37819615 -30 16 C-29.3125 13.5625 -29.3125 13.5625 -28 11 C-25.5 10.0625 -25.5 10.0625 -23 10 C-22.34 10.66 -21.68 11.32 -21 12 C-18.34462628 12.56520003 -15.70855287 12.73788198 -13 13 C-12.92523438 12.31292969 -12.85046875 11.62585938 -12.7734375 10.91796875 C-11.69460821 3.52481509 -11.69460821 3.52481509 -8.1875 0.875 C-5.25697487 0.07054212 -3.01285938 -0.26584053 0 0 Z " fill="#d8c41d" transform="translate(361,259)"/>
  <path d="M0 0 C6.625 -0.25 6.625 -0.25 10 2 C10.28875 3.0725 10.5775 4.145 10.875 5.25 C11.89353771 8.64512569 12.40764838 9.75859369 14.625 12.25 C17 15 17 15 17 18 C13.6452635 18.41078406 11.04875672 18.63438034 8.08203125 16.83984375 C4.67918276 14.00292742 1.71800246 11.1434177 0 7 C-0.1875 3.1875 -0.1875 3.1875 0 0 Z " fill="#d8c41d" transform="translate(185,260)"/>
  <path d="M0 0 C4.12730284 3.7403682 7.2400806 7.94631011 10.46875 12.47265625 C14.34934025 17.91229634 18.35759802 23.25993153 22.33959961 28.62548828 C22.92749268 29.42067871 23.51538574 30.21586914 24.12109375 31.03515625 C24.6514624 31.7506665 25.18183105 32.46617676 25.72827148 33.20336914 C27 35 27 35 28 37 C27.34 37 26.68 37 26 37 C26 37.66 26 38.32 26 39 C24.13476563 38.69677734 24.13476563 38.69677734 22 38 C20.33064144 35.56249456 18.90659998 33.20853347 17.5 30.625 C16.63079388 29.08283326 15.75825616 27.54254069 14.8828125 26.00390625 C14.42165039 25.19195801 13.96048828 24.38000977 13.48535156 23.54345703 C10.41268349 18.28194225 7.07353366 13.18269869 3.75976562 8.07080078 C3.26927734 7.30622559 2.77878906 6.54165039 2.2734375 5.75390625 C1.61480713 4.73792358 1.61480713 4.73792358 0.94287109 3.70141602 C0 2 0 2 0 0 Z " fill="#274aae" transform="translate(104,92)"/>
  <path d="M0 0 C3.58273331 1.65356922 6.80973467 3.67980703 10 6 C10 6.66 10 7.32 10 8 C4.10104429 12.0449982 -2.07303328 11.27748976 -9 11 C-9 10.67 -9 10.34 -9 10 C-7.35 10 -5.7 10 -4 10 C-4.474375 9.21625 -4.94875 8.4325 -5.4375 7.625 C-6.33898023 6.11051322 -7.21179485 4.5764103 -8 3 C-6.865625 2.690625 -5.73125 2.38125 -4.5625 2.0625 C-1.21224901 1.37075469 -1.21224901 1.37075469 0 0 Z " fill="#d8b71d" transform="translate(206,268)"/>
  <path d="M0 0 C0 0.66 0 1.32 0 2 C1.66666667 2.33333333 3.33333333 2.66666667 5 3 C6.66666667 3.33333333 8.33333333 3.66666667 10 4 C10 5.32 10 6.64 10 8 C3.30713088 8.47617251 -0.77531236 8.39973696 -6 4 C-5.67 3.01 -5.34 2.02 -5 1 C-3 0 -3 0 0 0 Z " fill="#d8c41d" transform="translate(337,271)"/>
  <path d="M0 0 C0.25 6.625 0.25 6.625 -2 10 C-2 8.68 -2 7.36 -2 6 C-4.64 6 -7.28 6 -10 6 C-10.33 6.66 -10.66 7.32 -11 8 C-11 6.35 -11 4.7 -11 3 C-7.14243493 0.84694043 -4.44870215 -0.39253254 0 0 Z " fill="#d8b71d" transform="translate(361,259)"/>
  <path d="M0 0 C0 3.4415433 -0.66695338 4.42336207 -2.484375 7.2734375 C-3.00773437 8.0984375 -3.53109375 8.9234375 -4.0703125 9.7734375 C-4.62460937 10.63195312 -5.17890625 11.49046875 -5.75 12.375 C-6.28882813 13.22578125 -6.82765625 14.0765625 -7.3828125 14.953125 C-10.06323343 19.15027192 -12.77321382 23.19364542 -16 27 C-16.16135327 18.44827672 -11.41656906 14.17631884 -6 8 C-3.95215993 5.36765497 -1.96749264 2.69276444 0 0 Z " fill="#274aae" transform="translate(441,93)"/>
  <path d="M0 0 C-2.38253028 4.50033498 -5.27206903 7.58933975 -9 11 C-9.66 11 -10.32 11 -11 11 C-11 5.7486911 -11 5.7486911 -10 3 C-7.08985907 0.61432403 -3.5940536 -1.7970268 0 0 Z " fill="#C9CBCD" transform="translate(379,253)"/>
  <path d="M0 0 C0.33 1.32 0.66 2.64 1 4 C0.34 4 -0.32 4 -1 4 C-1.1546875 5.2684375 -1.1546875 5.2684375 -1.3125 6.5625 C-2.08079294 10.4039647 -3.19438149 13.52251251 -5 17 C-7.0625 18.375 -7.0625 18.375 -9 19 C-9.66 19.33 -10.32 19.66 -11 20 C-9.56952311 14.89115395 -7.28610306 10.98255739 -4.375 6.625 C-3.95476562 5.98433594 -3.53453125 5.34367187 -3.1015625 4.68359375 C-2.07370232 3.11844302 -1.03768114 1.55865686 0 0 Z " fill="#CACCD1" transform="translate(438,99)"/>
  <path d="M0 0 C0 0.66 0 1.32 0 2 C-0.99 2.33 -1.98 2.66 -3 3 C-1.02 3.66 0.96 4.32 3 5 C3 5.33 3 5.66 3 6 C-6.405 6.495 -6.405 6.495 -16 7 C-12.74658227 4.55993671 -10.54858018 3.24355138 -6.875 1.8125 C-5.57175781 1.29623047 -5.57175781 1.29623047 -4.2421875 0.76953125 C-2 0 -2 0 0 0 Z " fill="#274aae" transform="translate(417,311)"/>
  <path d="M0 0 C6.625 -0.25 6.625 -0.25 10 2 C10 2.99 10 3.98 10 5 C7.03 5 4.06 5 1 5 C0.67 5.66 0.34 6.32 0 7 C0 4.69 0 2.38 0 0 Z " fill="#d8b71d" transform="translate(185,260)"/>
  <path d="M0 0 C0.9075 0.845625 1.815 1.69125 2.75 2.5625 C7.67753258 6.81948176 13.32763478 9.85179073 19 13 C15.55108628 14.14963791 14.41129357 14.15037783 11 13 C8.89917895 11.23372266 7.06522314 9.53548813 5.1875 7.5625 C4.68541016 7.05912109 4.18332031 6.55574219 3.66601562 6.03710938 C0 2.28131378 0 2.28131378 0 0 Z " fill="#161B32" transform="translate(219,367)"/>
  <path d="M0 0 C0 3 0 3 -1.64453125 4.9375 C-2.71767578 5.9584375 -2.71767578 5.9584375 -3.8125 7 C-4.87404297 8.0209375 -4.87404297 8.0209375 -5.95703125 9.0625 C-6.96830078 10.0215625 -6.96830078 10.0215625 -8 11 C-9.00333145 11.99665741 -10.00472061 12.99530157 -11 14 C-11.33 13.01 -11.66 12.02 -12 11 C-12.66 10.67 -13.32 10.34 -14 10 C-13.24074219 9.52949219 -12.48148437 9.05898438 -11.69921875 8.57421875 C-10.70535156 7.95160156 -9.71148437 7.32898438 -8.6875 6.6875 C-7.20830078 5.76517578 -7.20830078 5.76517578 -5.69921875 4.82421875 C-3.49827965 3.33675339 -1.76671012 1.9596614 0 0 Z " fill="#131B31" transform="translate(324,369)"/>
  <path d="M0 0 C1.99609375 0.26953125 1.99609375 0.26953125 4.4375 0.8125 C5.64212891 1.06966797 5.64212891 1.06966797 6.87109375 1.33203125 C9 2 9 2 11 4 C4.73 3.67 -1.54 3.34 -8 3 C-8 2.67 -8 2.34 -8 2 C-6.865625 1.855625 -5.73125 1.71125 -4.5625 1.5625 C-1.19222799 1.38828522 -1.19222799 1.38828522 0 0 Z " fill="#274aae" transform="translate(134,314)"/>
  <path d="M0 0 C1.0828125 0.37125 1.0828125 0.37125 2.1875 0.75 C6.1054166 2.2125033 6.1054166 2.2125033 10.1875 2.75 C9.8575 3.74 9.5275 4.73 9.1875 5.75 C4.42785613 4.88461021 -0.46602212 3.92323894 -4.8125 1.75 C-1.8125 -0.25 -1.8125 -0.25 0 0 Z " fill="#d8b71d" transform="translate(336.8125,269.25)"/>
  <path d="M0 0 C5.61 0 11.22 0 17 0 C12 4 12 4 9 5 C9 4.01 9 3.02 9 2 C6.03 1.67 3.06 1.34 0 1 C0 0.67 0 0.34 0 0 Z " fill="#315edd" transform="translate(338,290)"/>
  <path d="M0 0 C4.54075781 4.14010271 7.71842138 8.82390176 11 14 C10.01 14.33 9.02 14.66 8 15 C6.66121428 12.8782637 5.32884524 10.75294812 4 8.625 C3.6184375 8.02171875 3.236875 7.4184375 2.84375 6.796875 C0 2.2265625 0 2.2265625 0 0 Z " fill="#274aae" transform="translate(104,92)"/>
  <path d="M0 0 C3.3 0.33 6.6 0.66 10 1 C9.01 1.495 9.01 1.495 8 2 C7.34786708 4.02463255 7.34786708 4.02463255 7 6 C1.125 2.25 1.125 2.25 0 0 Z " fill="#274aae" transform="translate(52,290)"/>
  <path d="M0 0 C4.95 0.33 9.9 0.66 15 1 C15 1.33 15 1.66 15 2 C14.195625 2.12375 13.39125 2.2475 12.5625 2.375 C11.2940625 2.684375 11.2940625 2.684375 10 3 C9.67 3.66 9.34 4.32 9 5 C5.35008834 3.68197635 3.2104799 2.40785992 0 0 Z " fill="#315edd" transform="translate(191,290)"/>
  <path d="M0 0 C4.20626034 1.50223584 5.73900021 4.28550034 8 8 C6.68 8.33 5.36 8.66 4 9 C0 2.25 0 2.25 0 0 Z " fill="#274aae" transform="translate(113,106)"/>
  <path d="M0 0 C0.66 0.33 1.32 0.66 2 1 C0.47793991 3.62901288 -0.84365964 5.84365964 -3 8 C-3.99 8 -4.98 8 -6 8 C-6 7.01 -6 6.02 -6 5 C-4.68 4.67 -3.36 4.34 -2 4 C-2 3.01 -2 2.02 -2 1 C-1.34 0.67 -0.68 0.34 0 0 Z " fill="#DADBDC" transform="translate(377,252)"/>
  <path d="M0 0 C2.02045442 0.60183749 4.02111039 1.27306096 6 2 C6.33 2.66 6.66 3.32 7 4 C4.59454362 5.20272819 3.05003047 5.10071472 0.375 5.0625 C-0.85089844 5.04896484 -0.85089844 5.04896484 -2.1015625 5.03515625 C-3.04128906 5.01775391 -3.04128906 5.01775391 -4 5 C-4 4.67 -4 4.34 -4 4 C-2.35 4 -0.7 4 1 4 C0.67 2.68 0.34 1.36 0 0 Z " fill="#d8c41d" transform="translate(201,274)"/>
  <path d="M0 0 C0.99 1.32 1.98 2.64 3 4 C1.865625 4.268125 0.73125 4.53625 -0.4375 4.8125 C-2.2009375 5.4003125 -2.2009375 5.4003125 -4 6 C-4.33 6.99 -4.66 7.98 -5 9 C-5.33 8.34 -5.66 7.68 -6 7 C-4.02 4.69 -2.04 2.38 0 0 Z " fill="#315edd" transform="translate(57,282)"/>
  <path d="M0 0 C3.71368887 1.23789629 4.77354181 2.85224877 7 6 C7 6.66 7 7.32 7 8 C6.01 7.67 5.02 7.34 4 7 C4 6.34 4 5.68 4 5 C2.35 4.67 0.7 4.34 -1 4 C-0.67 2.68 -0.34 1.36 0 0 Z " fill="#315edd" transform="translate(489,283)"/>
  <path d="M0 0 C1.19105377 3.5731613 1.0704232 5.40643641 0 9 C-2.5625 10.375 -2.5625 10.375 -5 11 C-3.77472971 6.94718288 -2.30119506 3.55639236 0 0 Z " fill="#A69B92" transform="translate(402,158)"/>
  <path d="M0 0 C0 3.59058544 -0.89631503 4.74787471 -2.875 7.6875 C-3.40867187 8.49574219 -3.94234375 9.30398437 -4.4921875 10.13671875 C-4.98976563 10.75160156 -5.48734375 11.36648437 -6 12 C-6.66 12 -7.32 12 -8 12 C-6.59023295 8.96147295 -4.91129772 6.4060405 -2.875 3.75 C-2.06675781 2.69039063 -2.06675781 2.69039063 -1.2421875 1.609375 C-0.83226562 1.07828125 -0.42234375 0.5471875 0 0 Z " fill="#274aae" transform="translate(441,93)"/>
  <path d="M0 0 C0.66 0.33 1.32 0.66 2 1 C2.4140625 3.28515625 2.4140625 3.28515625 2.625 6.0625 C2.69976562 6.98160156 2.77453125 7.90070313 2.8515625 8.84765625 C2.92503906 9.91306641 2.92503906 9.91306641 3 11 C-0.10877662 8.20042965 -0.64288953 6.19604804 -1 2 C-0.67 1.34 -0.34 0.68 0 0 Z " fill="#DADBDC" transform="translate(109,102)"/>
  <path d="M0 0 C0.99 0.33 1.98 0.66 3 1 C2.64950425 4.24208567 2.43778819 5.61527704 -0.0625 7.8125 C-0.701875 8.204375 -1.34125 8.59625 -2 9 C-1.34 6.03 -0.68 3.06 0 0 Z " fill="#271E27" transform="translate(302,294)"/>
  <path d="M0 0 C-3.06246747 1.78409802 -5.22079273 2.22880021 -8.75 2.125 C-9.54921875 2.10695312 -10.3484375 2.08890625 -11.171875 2.0703125 C-11.77515625 2.04710937 -12.3784375 2.02390625 -13 2 C-8.7920942 -0.80527053 -4.85771358 -1.68151624 0 0 Z " fill="#315edd" transform="translate(234,126)"/>
  <path d="M0 0 C0 3 0 3 -1.53125 4.60546875 C-2.1809375 5.12753906 -2.830625 5.64960938 -3.5 6.1875 C-4.1496875 6.71730469 -4.799375 7.24710937 -5.46875 7.79296875 C-5.9740625 8.19128906 -6.479375 8.58960938 -7 9 C-7.66 8.34 -8.32 7.68 -9 7 C-8.43410156 6.57847656 -7.86820312 6.15695312 -7.28515625 5.72265625 C-6.55167969 5.17480469 -5.81820313 4.62695312 -5.0625 4.0625 C-4.33160156 3.51722656 -3.60070312 2.97195313 -2.84765625 2.41015625 C-1.0865547 1.13092062 -1.0865547 1.13092062 0 0 Z " fill="#3D4251" transform="translate(324,369)"/>
  <path d="M0 0 C1.1055189 0.93590504 2.20935453 1.87379858 3.3125 2.8125 C3.92738281 3.33457031 4.54226562 3.85664063 5.17578125 4.39453125 C6.85424679 5.87172469 8.43882034 7.40039131 10 9 C7 9 7 9 5.17578125 7.5390625 C4.56089844 6.90742188 3.94601563 6.27578125 3.3125 5.625 C2.68988281 4.99851562 2.06726563 4.37203125 1.42578125 3.7265625 C0 2 0 2 0 0 Z " fill="#464956" transform="translate(219,367)"/>
  <path d="M0 0 C0.99 0 1.98 0 3 0 C3 1.65 3 3.3 3 5 C1.68 5 0.36 5 -1 5 C-0.67 3.35 -0.34 1.7 0 0 Z " fill="#DCDDDF" transform="translate(174,256)"/>
  <path d="M0 0 C0 0.66 0 1.32 0 2 C-3.82989106 3.80230168 -6.78121808 4.19622241 -11 4 C-7.61125486 1.74083657 -4.15175481 0 0 0 Z " fill="#000000" transform="translate(394,240)"/>
  <path d="M0 0 C2.64 0 5.28 0 8 0 C8.33 1.32 8.66 2.64 9 4 C6.03 3.01 3.06 2.02 0 1 C0 0.67 0 0.34 0 0 Z " fill="#A9A19C" transform="translate(139,164)"/>
</svg>